<svg id="Layer_1" data-name="Layer 1" xmlns="http://www.w3.org/2000/svg" xmlns:xlink="http://www.w3.org/1999/xlink" viewBox="0 0 512 512"><defs><linearGradient id="linear-gradient" x1="256" y1="512" x2="256" gradientUnits="userSpaceOnUse"><stop offset="0" stop-color="#231f20"/><stop offset="1" stop-color="#58595b"/></linearGradient></defs><title>games</title><path d="M486.41,0H25.59A25.65,25.65,0,0,0,0,25.59V486.41A25.65,25.65,0,0,0,25.59,512H486.41A25.65,25.65,0,0,0,512,486.41V25.59A25.65,25.65,0,0,0,486.41,0ZM160.24,160.24a52.27,52.27,0,1,1,0-73.93A52.25,52.25,0,0,1,160.24,160.24ZM293,293A52.27,52.27,0,1,1,293,219,52.26,52.26,0,0,1,293,293ZM425.69,425.69a52.27,52.27,0,1,1,0-73.93A52.28,52.28,0,0,1,425.69,425.69Z" fill-rule="evenodd" fill="url(#linear-gradient)"/></svg>