<svg xmlns="http://www.w3.org/2000/svg" 
    width="24" 
    height="24">

    <g shape-rendering="crispEdges">
        <path fill="#dd0008" d="M8 2h3v3H8z"/>
        <path fill="#a70009" d="M8 2h1v3H8z"/>
        <path fill="#ffb01c" d="M7 3h1v1H7zm1-1h1v1H8z"/>
        <path fill="#532d2d" d="M6 5v1H5v5h1v1h3v1H8v1H7v1H6v1h2v5h1v-1l3-7v-1L7 5zm7 10v1h2v-1zm-1 4v1h1v1h1v-2z"/>
        <path fill="#fd8a8a" d="M8 5 7 7v3l1 1 1 1h3l-1 1h-1l-1 1H8v1h1v1l1 2 1 1h3v-6h-1v-1h4v-1h1V6h-1V5zm0 10H7v1h1z"/>
        <path fill="#000009" d="M16 8h1v1h-1zM8 8h1v1H8z"/>
        <path fill="#a85c5c" d="M7 5v1H6v5h2v-1H7V7h1V5zm1 6v1h1v-1zm3 1v1h1v-1zm-2 1v1h1v-1zm0 3v4h1v-1h1v-1h-1v-2zm4 3v1h1v-1z"/>
    </g>    
</svg>